<svg width="20" height="21" viewBox="0 0 20 21" fill="none" xmlns="http://www.w3.org/2000/svg">
<g clip-path="url(#clip0_210_3125)">
<rect x="-0.009552" y="0.797119" width="20" height="20" rx="2" fill="#47DB7F"/>
<path d="M10 13.5V16M8.5 10.38C8.4999 10.566 8.44791 10.7484 8.34986 10.9065C8.25181 11.0646 8.11161 11.1922 7.945 11.275L7.055 11.725C6.88839 11.8078 6.74819 11.9354 6.65014 12.0935C6.55209 12.2516 6.5001 12.434 6.5 12.62V13C6.5 13.1326 6.55268 13.2598 6.64645 13.3536C6.74021 13.4473 6.86739 13.5 7 13.5H13C13.1326 13.5 13.2598 13.4473 13.3536 13.3536C13.4473 13.2598 13.5 13.1326 13.5 13V12.62C13.4999 12.434 13.4479 12.2516 13.3499 12.0935C13.2518 11.9354 13.1116 11.8078 12.945 11.725L12.055 11.275C11.8884 11.1922 11.7482 11.0646 11.6501 10.9065C11.5521 10.7484 11.5001 10.566 11.5 10.38V8.5C11.5 8.36739 11.5527 8.24021 11.6464 8.14645C11.7402 8.05268 11.8674 8 12 8C12.2652 8 12.5196 7.89464 12.7071 7.70711C12.8946 7.51957 13 7.26522 13 7C13 6.73478 12.8946 6.48043 12.7071 6.29289C12.5196 6.10536 12.2652 6 12 6H8C7.73478 6 7.48043 6.10536 7.29289 6.29289C7.10536 6.48043 7 6.73478 7 7C7 7.26522 7.10536 7.51957 7.29289 7.70711C7.48043 7.89464 7.73478 8 8 8C8.13261 8 8.25979 8.05268 8.35355 8.14645C8.44732 8.24021 8.5 8.36739 8.5 8.5V10.38Z" stroke="#013A54" stroke-linecap="round" stroke-linejoin="round"/>
</g>
<defs>
<clipPath id="clip0_210_3125">
<rect x="-0.009552" y="0.797119" width="20" height="20" rx="2" fill="white"/>
</clipPath>
</defs>
</svg>
