<svg width="20" height="21" viewBox="0 0 20 21" fill="none" xmlns="http://www.w3.org/2000/svg">
<g clip-path="url(#clip0_210_3095)">
<rect x="-0.009552" y="0.778076" width="20" height="20" rx="2" fill="#47DB7F"/>
<g clip-path="url(#clip1_210_3095)">
<path d="M8.05573 8.43815L4.99045 11.4937L8.06046 14.5446L11.1305 11.4937L8.05573 8.43815ZM6.32914 11.4937L8.06046 9.77054L9.78704 11.4937L8.05573 13.2169L6.32914 11.4937ZM13.7416 8.54644C12.9138 7.71781 11.8211 7.3035 10.7331 7.3035V5.77808L8.72744 7.77431L10.7331 9.77054V8.24512C11.5799 8.24512 12.4266 8.56527 13.0746 9.21028C14.366 10.4956 14.366 12.586 13.0746 13.8713C12.4266 14.5163 11.5799 14.8365 10.7331 14.8365C10.2743 14.8365 9.81542 14.7376 9.38969 14.5493L8.68487 15.2508C9.32347 15.5992 10.0283 15.7781 10.7331 15.7781C11.8211 15.7781 12.9138 15.3638 13.7416 14.5351C15.4067 12.8826 15.4067 10.199 13.7416 8.54644Z" fill="#013A54"/>
</g>
</g>
<defs>
<clipPath id="clip0_210_3095">
<rect x="-0.009552" y="0.778076" width="20" height="20" rx="2" fill="white"/>
</clipPath>
<clipPath id="clip1_210_3095">
<rect width="10" height="10" fill="white" transform="translate(4.99045 5.77808)"/>
</clipPath>
</defs>
</svg>
