<svg width="21" height="21" viewBox="0 0 21 21" fill="none" xmlns="http://www.w3.org/2000/svg">
<g clip-path="url(#clip0_210_3159)">
<rect x="0.490479" y="0.35498" width="20" height="20" rx="2" fill="#47DB7F"/>
<path d="M11.8192 8.95498L11.6513 13.755M9.32964 13.755L9.16181 8.95498M13.9948 7.24328C14.1606 7.27083 14.3258 7.3003 14.4905 7.33167M13.9948 7.24328L13.477 14.647C13.4333 15.2722 12.9594 15.755 12.3894 15.755H8.5916C8.02156 15.755 7.54763 15.2722 7.50391 14.647L6.98616 7.24328M13.9948 7.24328C13.439 7.15095 12.8767 7.08023 12.3087 7.03195M6.49048 7.33167C6.65512 7.3003 6.82036 7.27083 6.98616 7.24328M6.98616 7.24328C7.54201 7.15095 8.10429 7.08023 8.6723 7.03195M12.3087 7.03195V6.54335C12.3087 5.91435 11.8671 5.38924 11.2956 5.36913C11.0283 5.35972 10.7599 5.35498 10.4905 5.35498C10.2211 5.35498 9.95267 5.35972 9.68535 5.36913C9.11383 5.38924 8.6723 5.91435 8.6723 6.54335V7.03195M12.3087 7.03195C11.7087 6.98095 11.1023 6.95498 10.4905 6.95498C9.87862 6.95498 9.27227 6.98095 8.6723 7.03195" stroke="#013A54" stroke-linecap="round" stroke-linejoin="round"/>
</g>
<defs>
<clipPath id="clip0_210_3159">
<rect x="0.490479" y="0.35498" width="20" height="20" rx="2" fill="white"/>
</clipPath>
</defs>
</svg>
