<svg width="20" height="21" viewBox="0 0 20 21" fill="none" xmlns="http://www.w3.org/2000/svg">
<rect x="-0.009552" y="0.73999" width="20" height="20" rx="4" fill="#47DB7F"/>
<g clip-path="url(#clip0_210_3048)">
<path d="M10.9904 5.73999V7.73999C10.9904 8.00521 11.0958 8.25956 11.2833 8.4471C11.4709 8.63463 11.7252 8.73999 11.9904 8.73999H13.9904M8.49045 12.24H11.4904M9.99045 13.74V10.74M11.4904 5.73999H6.99045C6.72523 5.73999 6.47088 5.84535 6.28334 6.03288C6.0958 6.22042 5.99045 6.47477 5.99045 6.73999V14.74C5.99045 15.0052 6.0958 15.2596 6.28334 15.4471C6.47088 15.6346 6.72523 15.74 6.99045 15.74H12.9904C13.2557 15.74 13.51 15.6346 13.6976 15.4471C13.8851 15.2596 13.9904 15.0052 13.9904 14.74V8.23999L11.4904 5.73999Z" stroke="#013A54" stroke-linecap="round" stroke-linejoin="round"/>
</g>
<defs>
<clipPath id="clip0_210_3048">
<rect width="12" height="12" fill="white" transform="translate(3.99045 4.73999)"/>
</clipPath>
</defs>
</svg>
