<?xml version="1.0" encoding="UTF-8"?><svg id="Layer_1" xmlns="http://www.w3.org/2000/svg" xmlns:xlink="http://www.w3.org/1999/xlink" viewBox="0 0 461 461"><defs><style>.cls-1{fill:url(#linear-gradient);}.cls-2{fill:#fff;filter:url(#drop-shadow-1);}.cls-3{fill:#898989;font-family:Montserrat-Regular, Montserrat;font-size:15px;}</style><linearGradient id="linear-gradient" x1="162.84" y1="150.53" x2="266.51" y2="330.09" gradientUnits="userSpaceOnUse"><stop offset="0" stop-color="#5300c9"/><stop offset="1" stop-color="#0db14b"/></linearGradient><filter id="drop-shadow-1" x="112.44" y="113.04" width="109.68" height="109.68" filterUnits="userSpaceOnUse"><feOffset dx="2" dy="2"/><feGaussianBlur result="blur" stdDeviation="5"/><feFlood flood-color="#000" flood-opacity=".75"/><feComposite in2="blur" operator="in"/><feComposite in="SourceGraphic"/></filter></defs><path class="cls-1" d="M335.37,230.5c0,20.85-4.82,39.13-14.45,54.82-9.63,15.7-23.14,27.85-40.51,36.49-17.38,8.64-37.39,12.96-60.03,12.96h-94.74v-129.25l79.3-79.3h15.44c22.64,0,42.65,4.32,60.03,12.96,17.38,8.64,30.88,20.81,40.51,36.49,9.63,15.7,14.45,33.96,14.45,54.82Z"/><polygon class="cls-2" points="204.93 205.53 125.63 205.53 204.93 126.23 204.93 205.53"/><text class="cls-3" transform="translate(20.08 41.76)"><tspan x="0" y="0">Logo Mark (Icon in Full Color)</tspan></text></svg>