<svg width="218" height="36" viewBox="0 0 218 36" fill="none" xmlns="http://www.w3.org/2000/svg">
<g opacity="0.9" clip-path="url(#clip0_374_186)">
<path d="M70.8832 17.8537C70.8832 21.4245 70.0595 24.5534 68.4122 27.2407C66.7456 29.9448 64.3395 32.1142 61.4789 33.492C58.5057 34.9723 55.082 35.7124 51.2076 35.7124H35V13.5778L48.5667 0H51.2076C55.082 0 58.5057 0.739319 61.4789 2.21796C64.3389 3.59651 66.7448 5.76575 68.4122 8.46926C70.0578 11.1565 70.8815 14.2846 70.8832 17.8537Z" fill="white"/>
<g filter="url(#filter0_d_374_186)">
<path d="M48.5667 13.5778H35L48.5667 0V13.5778Z" fill="white"/>
</g>
<path d="M77.5915 0.655363C77.5876 0.618277 77.592 0.58078 77.6044 0.545618C77.6168 0.510456 77.6369 0.478518 77.6633 0.452146C77.6896 0.425775 77.7215 0.405635 77.7567 0.393204C77.7918 0.380774 77.8293 0.376366 77.8663 0.380304H83.6728C84.8318 0.362648 85.9843 0.55757 87.0732 0.955425C88.041 1.31243 88.9169 1.88141 89.6367 2.62077C90.356 3.38062 90.9038 4.28622 91.2432 5.27632C91.9894 7.5991 91.9894 10.0975 91.2432 12.4203C90.9031 13.416 90.3555 14.328 89.6367 15.0959C88.921 15.8379 88.0473 16.4088 87.0807 16.7662C85.9916 17.163 84.8392 17.357 83.6803 17.3388H77.8663C77.8295 17.3427 77.7923 17.3383 77.7573 17.3261C77.7224 17.3138 77.6906 17.2939 77.6643 17.2678C77.638 17.2417 77.6178 17.2101 77.6052 17.1752C77.5926 17.1404 77.5879 17.1032 77.5915 17.0663V0.655363ZM87.3356 8.83457C87.3356 7.37093 87.0116 6.24486 86.3636 5.45636C85.7157 4.66786 84.8188 4.27278 83.6728 4.27112H82.0288V13.448H83.6728C84.8387 13.448 85.7399 13.0579 86.3761 12.2778C87.0124 11.4976 87.3322 10.3499 87.3356 8.83457Z" fill="white"/>
<path d="M92.8423 10.8723C92.8423 8.74516 93.4112 7.10315 94.5488 5.94625C95.6864 4.78934 97.2771 4.21172 99.3209 4.21338C101.333 4.21338 102.911 4.79684 104.056 5.96375C105.2 7.13066 105.774 8.76683 105.777 10.8723C105.777 12.9844 105.203 14.6306 104.056 15.8108C102.908 16.991 101.33 17.5812 99.3209 17.5812C98.3952 17.5974 97.4744 17.4423 96.605 17.1236C95.8398 16.8359 95.1466 16.3845 94.5738 15.8008C93.9998 15.1988 93.5626 14.4797 93.2921 13.6929C92.9795 12.786 92.8273 11.8315 92.8423 10.8723ZM97.2047 10.8723C97.2047 11.9525 97.3912 12.776 97.7643 13.3428C97.931 13.6014 98.1598 13.814 98.4297 13.9612C98.6997 14.1085 99.0022 14.1856 99.3096 14.1856C99.6171 14.1856 99.9196 14.1085 100.19 13.9612C100.46 13.814 100.688 13.6014 100.855 13.3428C101.228 12.7877 101.415 11.9608 101.415 10.8623C101.415 9.76371 101.228 8.94937 100.855 8.41926C100.683 8.16605 100.452 7.95879 100.181 7.81554C99.9107 7.67229 99.6094 7.59741 99.3034 7.59741C98.9974 7.59741 98.6961 7.67229 98.4257 7.81554C98.1552 7.95879 97.9239 8.16605 97.7518 8.41926C97.3871 8.97938 97.2047 9.79705 97.2047 10.8723Z" fill="white"/>
<path d="M113.327 17.5889C111.162 17.5889 109.488 17.0054 108.305 15.8385C107.123 14.6716 106.529 13.0254 106.524 10.9C106.524 8.77287 107.118 7.1267 108.305 5.96145C109.493 4.79621 111.167 4.21276 113.327 4.21109C113.81 4.20856 114.292 4.2378 114.771 4.29861C115.201 4.3555 115.626 4.44324 116.043 4.56116C116.121 4.57972 116.191 4.62412 116.241 4.68719C116.291 4.75026 116.318 4.82831 116.318 4.90873V7.57929C116.318 7.81184 116.201 7.90186 115.968 7.85185C115.564 7.7687 115.157 7.70611 114.746 7.66431C114.332 7.6243 113.982 7.60429 113.7 7.60429C112.803 7.60429 112.108 7.88935 111.618 8.46447C111.129 9.03959 110.884 9.84726 110.884 10.895C110.884 11.9427 111.134 12.7529 111.618 13.328C112.103 13.9031 112.803 14.1882 113.7 14.1882C113.982 14.1882 114.332 14.1657 114.746 14.1257C115.157 14.0838 115.564 14.0213 115.968 13.9381C116.009 13.9216 116.054 13.9163 116.098 13.9229C116.142 13.9295 116.183 13.9477 116.218 13.9756C116.253 14.0068 116.28 14.0455 116.297 14.0889C116.315 14.1323 116.322 14.1791 116.318 14.2257V16.8937C116.325 16.972 116.304 17.0502 116.258 17.114C116.212 17.1778 116.145 17.223 116.068 17.2413C115.647 17.3555 115.217 17.4391 114.784 17.4914C114.301 17.5552 113.814 17.5878 113.327 17.5889Z" fill="white"/>
<path d="M129.05 17.0663C129.054 17.1031 129.049 17.1404 129.036 17.1752C129.024 17.2101 129.004 17.2417 128.977 17.2677C128.951 17.2938 128.919 17.3137 128.884 17.326C128.849 17.3383 128.812 17.3427 128.775 17.3388H125.063C125.026 17.3423 124.989 17.3376 124.954 17.3252C124.92 17.3127 124.888 17.2927 124.862 17.2667C124.836 17.2406 124.816 17.2092 124.804 17.1745C124.791 17.1399 124.787 17.1029 124.79 17.0663V16.5912C124.25 16.9211 123.667 17.1736 123.056 17.3413C122.487 17.503 121.899 17.5871 121.307 17.5914C120.063 17.5914 119.095 17.2088 118.404 16.4436C117.715 15.681 117.37 14.6232 117.37 13.278V4.74618C117.366 4.7091 117.37 4.6716 117.383 4.63644C117.395 4.60128 117.415 4.56934 117.442 4.54297C117.468 4.51659 117.5 4.49646 117.535 4.48402C117.57 4.47159 117.608 4.46719 117.645 4.47112H121.357C121.394 4.46719 121.432 4.47159 121.467 4.48402C121.502 4.49646 121.534 4.51659 121.56 4.54297C121.587 4.56934 121.607 4.60128 121.619 4.63644C121.632 4.6716 121.636 4.7091 121.632 4.74618V11.5526C121.632 12.3028 121.747 12.8379 121.982 13.1629C122.109 13.329 122.276 13.4604 122.467 13.5452C122.659 13.6299 122.868 13.6653 123.076 13.648C123.367 13.6414 123.654 13.5864 123.926 13.4855C124.235 13.3807 124.528 13.2343 124.798 13.0504V4.74618C124.794 4.70933 124.798 4.67207 124.811 4.63711C124.823 4.60215 124.843 4.57035 124.869 4.54403C124.895 4.51771 124.926 4.49751 124.961 4.4849C124.996 4.47229 125.033 4.46759 125.07 4.47112H128.783C128.82 4.46719 128.857 4.47159 128.893 4.48402C128.928 4.49646 128.96 4.51659 128.986 4.54297C129.012 4.56934 129.032 4.60128 129.045 4.63644C129.057 4.6716 129.062 4.7091 129.058 4.74618L129.05 17.0663Z" fill="white"/>
<path d="M137.473 10.257C137.473 9.51014 137.373 8.97336 137.173 8.64663C137.074 8.48714 136.934 8.35766 136.767 8.27217C136.6 8.18668 136.413 8.14842 136.226 8.16153C135.989 8.17066 135.757 8.22587 135.541 8.32406C135.282 8.43307 135.036 8.57062 134.807 8.73414V17.0659C134.81 17.1028 134.806 17.14 134.793 17.1748C134.781 17.2097 134.76 17.2413 134.734 17.2674C134.708 17.2935 134.676 17.3134 134.641 17.3257C134.606 17.3379 134.569 17.3423 134.532 17.3384H130.819C130.783 17.3419 130.746 17.3373 130.711 17.3248C130.677 17.3123 130.645 17.2924 130.619 17.2663C130.593 17.2403 130.573 17.2088 130.561 17.1742C130.548 17.1395 130.544 17.1025 130.547 17.0659V4.74581C130.543 4.70896 130.548 4.6717 130.56 4.63674C130.572 4.60178 130.592 4.56999 130.618 4.54366C130.644 4.51734 130.676 4.49714 130.71 4.48453C130.745 4.47192 130.783 4.46722 130.819 4.47076H134.532C134.569 4.46682 134.607 4.47122 134.642 4.48366C134.677 4.49609 134.709 4.51623 134.735 4.5426C134.761 4.56897 134.782 4.60091 134.794 4.63607C134.806 4.67123 134.811 4.70873 134.807 4.74581V5.1684C135.304 4.86102 135.84 4.62215 136.401 4.45826C136.928 4.30357 137.474 4.2236 138.022 4.2207C139.385 4.2207 140.384 4.72081 141.021 5.72102C141.59 5.24819 142.235 4.8761 142.929 4.62079C143.582 4.3714 144.274 4.24017 144.973 4.23321C146.153 4.23321 147.069 4.61579 147.722 5.38094C148.375 6.1461 148.698 7.20216 148.693 8.54911V17.0784C148.697 17.115 148.692 17.152 148.68 17.1867C148.667 17.2213 148.647 17.2528 148.621 17.2788C148.595 17.3049 148.564 17.3248 148.529 17.3373C148.495 17.3498 148.458 17.3544 148.421 17.3509H144.701C144.664 17.3548 144.627 17.3504 144.592 17.3382C144.557 17.3259 144.525 17.306 144.499 17.2799C144.473 17.2538 144.452 17.2222 144.44 17.1873C144.427 17.1525 144.423 17.1153 144.426 17.0784V10.257C144.426 9.51014 144.322 8.97336 144.114 8.64663C144.011 8.48765 143.869 8.35888 143.7 8.2736C143.531 8.18833 143.343 8.14964 143.154 8.16153C142.922 8.16979 142.693 8.22508 142.482 8.32406C142.228 8.43486 141.986 8.57232 141.76 8.73414V17.0659C141.764 17.1028 141.759 17.14 141.746 17.1748C141.734 17.2097 141.714 17.2413 141.687 17.2674C141.661 17.2935 141.629 17.3134 141.594 17.3257C141.559 17.3379 141.522 17.3423 141.485 17.3384H137.738C137.701 17.3423 137.664 17.3379 137.629 17.3257C137.594 17.3134 137.562 17.2935 137.536 17.2674C137.509 17.2413 137.489 17.2097 137.477 17.1748C137.464 17.14 137.459 17.1028 137.463 17.0659L137.473 10.257Z" fill="white"/>
<path d="M149.758 10.8723C149.758 8.70515 150.298 7.0548 151.379 5.92124C152.46 4.78767 154.005 4.21838 156.014 4.21338C157.723 4.21338 159.027 4.67098 159.927 5.58617C160.826 6.50136 161.274 7.83497 161.271 9.587C161.271 9.87206 161.258 10.2121 161.233 10.6097C161.218 10.9557 161.163 11.2987 161.071 11.6324C161.05 11.7116 161.005 11.7825 160.944 11.8361C160.882 11.8896 160.805 11.9232 160.724 11.9325L154.318 12.5551C154.686 13.722 155.608 14.3055 157.086 14.3055C157.603 14.2972 158.119 14.2513 158.63 14.168C159.176 14.0862 159.716 13.9735 160.249 13.8304C160.481 13.7804 160.599 13.8629 160.599 14.0804V16.6485C160.602 16.7325 160.58 16.8156 160.535 16.8869C160.491 16.9583 160.426 17.0146 160.349 17.0486C159.792 17.2433 159.216 17.3766 158.63 17.4461C157.936 17.5447 157.237 17.5948 156.536 17.5962C154.359 17.5962 152.685 17.0127 151.514 15.8458C150.343 14.6789 149.758 13.021 149.758 10.8723ZM156.039 7.55658C155.785 7.54509 155.531 7.59578 155.301 7.70427C155.071 7.81276 154.87 7.97577 154.717 8.17921C154.358 8.72122 154.152 9.35009 154.12 9.99958L157.618 9.64951C157.675 9.11245 157.543 8.57242 157.246 8.12169C157.106 7.93689 156.922 7.78938 156.712 7.69215C156.501 7.59491 156.27 7.55093 156.039 7.56408V7.55658Z" fill="white"/>
<path d="M162.393 4.74587C162.389 4.70879 162.393 4.67129 162.405 4.63613C162.418 4.60096 162.438 4.56903 162.464 4.54265C162.491 4.51628 162.523 4.49614 162.558 4.48371C162.593 4.47128 162.63 4.46687 162.667 4.47081H166.38C166.417 4.46727 166.454 4.47198 166.489 4.48459C166.524 4.4972 166.555 4.5174 166.581 4.54372C166.607 4.57004 166.627 4.60184 166.64 4.6368C166.652 4.67176 166.656 4.70902 166.652 4.74587V5.21847C167.193 4.8885 167.776 4.63599 168.386 4.46831C168.955 4.30664 169.544 4.22253 170.135 4.21826C171.383 4.21826 172.351 4.60084 173.039 5.366C173.726 6.13116 174.075 7.18805 174.085 8.53666V17.0659C174.089 17.1028 174.084 17.14 174.072 17.1749C174.059 17.2097 174.039 17.2413 174.013 17.2674C173.986 17.2935 173.954 17.3134 173.92 17.3257C173.885 17.338 173.847 17.3424 173.811 17.3385H170.088C170.051 17.3424 170.014 17.338 169.979 17.3257C169.944 17.3134 169.912 17.2935 169.886 17.2674C169.86 17.2413 169.839 17.2097 169.827 17.1749C169.814 17.14 169.809 17.1028 169.813 17.0659V10.257C169.813 9.50686 169.698 8.97175 169.463 8.64669C169.336 8.48062 169.169 8.34919 168.978 8.26443C168.787 8.17968 168.577 8.14432 168.369 8.16158C168.071 8.16757 167.777 8.22248 167.497 8.32412C167.193 8.42485 166.907 8.57159 166.647 8.75921V17.0659C166.651 17.1026 166.646 17.1396 166.634 17.1742C166.621 17.2089 166.601 17.2403 166.575 17.2664C166.549 17.2924 166.518 17.3124 166.483 17.3248C166.449 17.3373 166.412 17.342 166.375 17.3385H162.667C162.631 17.3424 162.593 17.338 162.558 17.3257C162.523 17.3134 162.492 17.2935 162.465 17.2674C162.439 17.2413 162.419 17.2097 162.406 17.1749C162.394 17.14 162.389 17.1028 162.393 17.0659V4.74587Z" fill="white"/>
<path d="M180.309 17.5888C178.58 17.5888 177.331 17.2354 176.561 16.5286C175.792 15.8218 175.405 14.6624 175.402 13.0504V1.04786C175.398 1.01097 175.403 0.973749 175.416 0.938901C175.428 0.904053 175.449 0.872445 175.475 0.84636C175.501 0.820275 175.533 0.800368 175.568 0.788078C175.603 0.775788 175.64 0.771421 175.677 0.775296H179.425C179.461 0.771421 179.499 0.775788 179.534 0.788078C179.568 0.800368 179.6 0.820275 179.627 0.84636C179.653 0.872445 179.673 0.904053 179.686 0.938901C179.698 0.973749 179.703 1.01097 179.699 1.04786V4.47107H182.738C182.775 4.46713 182.812 4.47154 182.847 4.48397C182.882 4.4964 182.914 4.51654 182.941 4.54291C182.967 4.56928 182.987 4.60122 182.999 4.63638C183.012 4.67154 183.016 4.70904 183.012 4.74612V7.56421C183.016 7.6011 183.011 7.63832 182.999 7.67316C182.986 7.70801 182.966 7.73962 182.94 7.76571C182.913 7.79179 182.881 7.8117 182.847 7.82399C182.812 7.83628 182.774 7.84064 182.738 7.83677H179.687V12.8728C179.687 13.788 180.252 14.2456 181.381 14.2456C181.562 14.2456 181.782 14.2331 182.04 14.2081C182.265 14.1892 182.487 14.143 182.7 14.0706C182.9 14.0206 183 14.0956 183 14.2956V16.8887C183.01 16.9704 182.99 17.0531 182.944 17.1216C182.899 17.19 182.83 17.2396 182.75 17.2612C182.393 17.3681 182.026 17.4435 181.656 17.4863C181.21 17.5516 180.76 17.5858 180.309 17.5888Z" fill="white"/>
<path d="M88.5574 25.6451C88.5574 27.5188 87.7729 28.8299 86.2039 29.5784C86.9234 29.9968 87.4273 30.6961 87.7154 31.6763L88.7723 35.5446C88.8298 35.7022 88.7723 35.7822 88.5999 35.7822H85.6192C85.5496 35.782 85.482 35.7585 85.4272 35.7155C85.3725 35.6724 85.3336 35.6123 85.3169 35.5446L84.4325 32.0439C84.3215 31.5973 84.0625 31.2016 83.6979 30.9212C83.3095 30.6392 82.8383 30.4949 82.3587 30.5111H80.8596V35.5471C80.8642 35.5805 80.8607 35.6145 80.8496 35.6463C80.8384 35.6781 80.8199 35.7067 80.7955 35.7299C80.7711 35.7531 80.7415 35.7702 80.7092 35.7797C80.6769 35.7892 80.6428 35.7909 80.6098 35.7847H77.7365C77.7043 35.7893 77.6714 35.7863 77.6405 35.776C77.6096 35.7657 77.5816 35.7483 77.5585 35.7253C77.5355 35.7022 77.5182 35.6741 77.5079 35.6432C77.4975 35.6123 77.4946 35.5794 77.4992 35.5471V21.3217C77.4946 21.2894 77.4975 21.2565 77.5079 21.2256C77.5182 21.1947 77.5355 21.1666 77.5585 21.1436C77.5816 21.1205 77.6096 21.1031 77.6405 21.0928C77.6714 21.0825 77.7043 21.0795 77.7365 21.0841H82.8559C84.6981 21.0841 86.1089 21.4734 87.0883 22.2519C88.0677 23.0304 88.5574 24.1614 88.5574 25.6451ZM82.4462 28.1081C84.2451 28.1081 85.1445 27.4163 85.1445 26.0327C85.1616 25.7431 85.1075 25.4537 84.9868 25.1899C84.8662 24.9262 84.6827 24.6961 84.4524 24.5198C83.9927 24.1748 83.3265 24.0022 82.4537 24.0022H80.8771V28.1081H82.4462Z" fill="white"/>
<path d="M89.3995 30.2263C89.3995 28.3826 89.8525 26.9656 90.7586 25.9754C91.6647 24.9852 92.9681 24.4918 94.6688 24.4951C96.1229 24.4951 97.2314 24.8944 97.9942 25.6929C98.7571 26.4914 99.136 27.6425 99.131 29.1461C99.131 29.3761 99.131 29.6587 99.0886 29.9888C99.0677 30.2573 99.0318 30.5244 98.9811 30.7889C98.9637 30.8537 98.9276 30.9119 98.8775 30.9564C98.8273 31.0008 98.7651 31.0296 98.6988 31.039L92.8474 31.5791C93.1921 32.8044 94.0916 33.417 95.5457 33.417C96.0098 33.4093 96.4725 33.3659 96.9299 33.287C97.4115 33.2115 97.8873 33.1029 98.354 32.9619C98.5564 32.9044 98.6563 32.9769 98.6563 33.1794V35.1449C98.665 35.2158 98.6482 35.2875 98.6088 35.3471C98.5694 35.4066 98.5101 35.4502 98.4415 35.4699C97.9642 35.6512 97.468 35.7779 96.9624 35.8475C96.3722 35.9398 95.7758 35.9866 95.1784 35.9875C93.3362 35.9875 91.9113 35.4874 90.9035 34.4872C89.8958 33.487 89.3945 32.0667 89.3995 30.2263ZM94.6912 27.1257C93.5086 27.1257 92.8532 27.9325 92.7249 29.5462L96.3327 29.1986C96.3452 28.5085 96.2128 27.9884 95.933 27.6433C95.7806 27.4662 95.589 27.3271 95.3734 27.2373C95.1578 27.1474 94.9242 27.1092 94.6912 27.1257Z" fill="white"/>
<path d="M99.8057 24.7869C99.7607 24.5844 99.8331 24.4844 100.021 24.4844H102.914C102.97 24.4878 103.024 24.5083 103.069 24.5431C103.114 24.5779 103.147 24.6254 103.164 24.6794L104.988 32.146L106.824 24.6894C106.841 24.6354 106.874 24.5879 106.919 24.5531C106.963 24.5183 107.017 24.4978 107.074 24.4944H109.967C110.169 24.4944 110.239 24.5944 110.182 24.7969L107.051 35.2991C107.037 35.3735 106.996 35.4401 106.937 35.4862C106.877 35.5324 106.802 35.5548 106.726 35.5492H103.261C103.186 35.5548 103.111 35.5324 103.051 35.4862C102.991 35.4401 102.95 35.3735 102.936 35.2991L99.8057 24.7869Z" fill="white"/>
<path d="M110.477 21.9269C110.467 21.7024 110.506 21.4785 110.593 21.271C110.679 21.0636 110.81 20.8777 110.976 20.7267C111.359 20.414 111.845 20.2561 112.338 20.2841C112.838 20.2532 113.331 20.4112 113.72 20.7267C113.886 20.8774 114.017 21.0632 114.104 21.2707C114.19 21.4782 114.23 21.7023 114.219 21.9269C114.234 22.1593 114.196 22.392 114.11 22.6082C114.023 22.8244 113.89 23.0187 113.72 23.1772C113.331 23.4927 112.838 23.6506 112.338 23.6198C111.841 23.6515 111.351 23.4934 110.966 23.1772C110.799 23.0169 110.668 22.822 110.584 22.6061C110.499 22.3902 110.462 22.1584 110.477 21.9269ZM110.726 24.9525C110.722 24.9203 110.725 24.8874 110.735 24.8565C110.745 24.8256 110.763 24.7975 110.786 24.7744C110.809 24.7514 110.837 24.734 110.868 24.7237C110.899 24.7134 110.932 24.7104 110.964 24.715H113.73C113.762 24.7104 113.795 24.7134 113.826 24.7237C113.856 24.734 113.885 24.7514 113.908 24.7744C113.931 24.7975 113.948 24.8256 113.958 24.8565C113.969 24.8874 113.972 24.9203 113.967 24.9525V35.5448C113.972 35.577 113.969 35.6099 113.958 35.6408C113.948 35.6717 113.931 35.6998 113.908 35.7229C113.885 35.7459 113.856 35.7633 113.826 35.7736C113.795 35.7839 113.762 35.7869 113.73 35.7823H110.974C110.942 35.7869 110.909 35.7839 110.878 35.7736C110.847 35.7633 110.819 35.7459 110.796 35.7229C110.773 35.6998 110.755 35.6717 110.745 35.6408C110.735 35.6099 110.732 35.577 110.736 35.5448L110.726 24.9525Z" fill="white"/>
<path d="M115.099 30.2263C115.099 28.3825 115.553 26.9656 116.46 25.9754C117.368 24.9852 118.671 24.4934 120.368 24.5001C121.822 24.5001 122.931 24.8993 123.693 25.6978C124.456 26.4963 124.839 27.6457 124.84 29.146C124.84 29.3761 124.825 29.6586 124.795 29.9887C124.776 30.2574 124.74 30.5246 124.688 30.7889C124.671 30.8534 124.635 30.9116 124.585 30.9561C124.536 31.0005 124.474 31.0293 124.408 31.0389L118.554 31.579C118.899 32.8043 119.799 33.4169 121.255 33.4169C121.718 33.4093 122.18 33.3658 122.637 33.2869C123.118 33.2114 123.594 33.1028 124.061 32.9618C124.263 32.9043 124.363 32.9768 124.363 33.1794V35.1448C124.372 35.2158 124.356 35.2877 124.316 35.3474C124.277 35.4071 124.217 35.4506 124.148 35.4699C123.671 35.6511 123.175 35.7778 122.669 35.8474C122.08 35.9397 121.484 35.9865 120.888 35.9875C119.044 35.9875 117.618 35.4874 116.61 34.4871C115.602 33.4869 115.099 32.0666 115.099 30.2263ZM120.39 27.1256C119.209 27.1256 118.554 27.9324 118.424 29.5461L122.032 29.1985C122.047 28.5084 121.912 27.9883 121.632 27.6432C121.48 27.4661 121.288 27.3271 121.073 27.2372C120.857 27.1473 120.623 27.1091 120.39 27.1256Z" fill="white"/>
<path d="M125.94 24.9528C125.935 24.9206 125.938 24.8877 125.948 24.8567C125.959 24.8258 125.976 24.7977 125.999 24.7747C126.022 24.7517 126.05 24.7343 126.081 24.724C126.112 24.7137 126.145 24.7107 126.177 24.7153H128.835C128.868 24.7084 128.903 24.7097 128.935 24.719C128.968 24.7283 128.998 24.7454 129.022 24.7687C129.047 24.792 129.065 24.821 129.076 24.853C129.087 24.8851 129.09 24.9193 129.085 24.9528V31.4817C129.085 32.6053 129.524 33.167 130.402 33.167C131.28 33.167 131.719 32.6053 131.719 31.4817V24.9528C131.713 24.9193 131.716 24.8851 131.727 24.853C131.738 24.821 131.757 24.792 131.781 24.7687C131.806 24.7454 131.836 24.7283 131.868 24.719C131.901 24.7097 131.935 24.7084 131.968 24.7153H134.582C134.615 24.7084 134.649 24.7097 134.682 24.719C134.714 24.7283 134.744 24.7454 134.769 24.7687C134.793 24.792 134.812 24.821 134.823 24.853C134.834 24.8851 134.837 24.9193 134.832 24.9528V31.4817C134.832 32.6053 135.271 33.167 136.151 33.167C137.03 33.167 137.469 32.6053 137.468 31.4817V24.9528C137.462 24.9193 137.465 24.8851 137.476 24.853C137.487 24.821 137.506 24.792 137.53 24.7687C137.555 24.7454 137.585 24.7283 137.617 24.719C137.65 24.7097 137.684 24.7084 137.717 24.7153H140.373C140.406 24.7084 140.441 24.7097 140.473 24.719C140.506 24.7283 140.536 24.7454 140.56 24.7687C140.585 24.792 140.603 24.821 140.614 24.853C140.625 24.8851 140.628 24.9193 140.623 24.9528V32.2793C140.623 33.4463 140.263 34.3581 139.544 35.0149C138.824 35.6717 137.852 35.9993 136.628 35.9976C135.936 36.0231 135.247 35.8968 134.609 35.6275C134.071 35.3947 133.601 35.0259 133.248 34.5573C132.905 35.0276 132.443 35.3972 131.908 35.6275C131.295 35.8901 130.632 36.0188 129.965 36.0051C128.74 36.0051 127.765 35.6776 127.039 35.0224C126.313 34.3673 125.949 33.4554 125.947 32.2869L125.94 24.9528Z" fill="white"/>
<path d="M142.105 34.182C142.097 33.9433 142.14 33.7058 142.229 33.4845C142.319 33.2632 142.453 33.063 142.625 32.8967C142.796 32.7308 142.999 32.6011 143.221 32.5152C143.443 32.4293 143.681 32.3889 143.919 32.3966C144.156 32.3882 144.393 32.4289 144.614 32.516C144.836 32.6031 145.037 32.7348 145.205 32.9029C145.373 33.0711 145.505 33.2721 145.592 33.4934C145.68 33.7147 145.721 33.9516 145.713 34.1895C145.72 34.4282 145.68 34.6662 145.594 34.8891C145.509 35.1121 145.379 35.3155 145.213 35.4872C145.046 35.6577 144.845 35.7917 144.624 35.8808C144.402 35.9699 144.165 36.0121 143.926 36.0048C143.686 36.0107 143.448 35.9677 143.225 35.8785C143.003 35.7894 142.8 35.6558 142.631 35.4861C142.461 35.3164 142.328 35.1139 142.239 34.891C142.149 34.6681 142.107 34.4294 142.112 34.1895L142.105 34.182Z" fill="white"/>
<path d="M147.774 21.3217C147.769 21.2894 147.772 21.2565 147.783 21.2256C147.793 21.1947 147.81 21.1666 147.833 21.1436C147.856 21.1205 147.885 21.1031 147.915 21.0928C147.946 21.0825 147.979 21.0795 148.011 21.0841H150.907C150.939 21.0795 150.972 21.0825 151.003 21.0928C151.034 21.1031 151.062 21.1205 151.085 21.1436C151.108 21.1666 151.126 21.1947 151.136 21.2256C151.146 21.2565 151.149 21.2894 151.145 21.3217V32.8766H156.564C156.597 32.8697 156.631 32.871 156.664 32.8803C156.696 32.8896 156.726 32.9067 156.751 32.93C156.775 32.9534 156.794 32.9823 156.805 33.0143C156.816 33.0464 156.819 33.0806 156.814 33.1141V35.5346C156.818 35.568 156.815 35.602 156.804 35.6338C156.792 35.6656 156.774 35.6942 156.749 35.7174C156.725 35.7406 156.695 35.7577 156.663 35.7672C156.631 35.7767 156.597 35.7784 156.564 35.7722H148.011C147.979 35.7768 147.946 35.7738 147.915 35.7635C147.885 35.7532 147.856 35.7358 147.833 35.7128C147.81 35.6897 147.793 35.6616 147.783 35.6307C147.772 35.5998 147.769 35.5669 147.774 35.5346V21.3217Z" fill="white"/>
<path d="M163.649 35.7826C163.616 35.7894 163.582 35.7882 163.549 35.7789C163.517 35.7696 163.487 35.7525 163.462 35.7292C163.438 35.7058 163.419 35.6769 163.408 35.6448C163.397 35.6128 163.394 35.5785 163.399 35.5451V35.09C163.018 35.3827 162.591 35.6092 162.135 35.7601C161.666 35.9239 161.173 36.0084 160.676 36.0101C159.857 36.0518 159.054 35.7688 158.442 35.2225C157.888 34.6974 157.61 33.9514 157.61 32.9845C157.577 32.2918 157.766 31.6066 158.15 31.0291C158.508 30.5328 158.983 30.1319 159.532 29.8614C160.123 29.5714 160.752 29.3676 161.401 29.2562C162.054 29.1366 162.714 29.0531 163.377 29.0062V28.8111C163.395 28.5873 163.352 28.3629 163.253 28.1614C163.154 27.9598 163.003 27.7887 162.815 27.6659C162.302 27.4036 161.728 27.2835 161.153 27.3183C160.698 27.3193 160.243 27.3485 159.792 27.4059C159.37 27.4565 158.953 27.5358 158.542 27.6434C158.34 27.6859 158.24 27.6084 158.24 27.4059V25.2004C158.24 25.1289 158.265 25.0597 158.311 25.0045C158.357 24.9494 158.42 24.9117 158.49 24.8978C158.74 24.8403 159.022 24.7878 159.354 24.7353C159.687 24.6828 160.014 24.6478 160.354 24.6178C160.694 24.5878 161.006 24.5628 161.316 24.5428C161.625 24.5228 161.888 24.5103 162.103 24.5103C165.113 24.5103 166.617 25.8072 166.617 28.4011V35.5551C166.623 35.5885 166.62 35.6228 166.609 35.6548C166.598 35.6869 166.579 35.7158 166.555 35.7392C166.53 35.7625 166.5 35.7796 166.468 35.7889C166.435 35.7982 166.401 35.7994 166.368 35.7926L163.649 35.7826ZM160.689 32.4744C160.676 32.6268 160.697 32.78 160.749 32.9237C160.801 33.0674 160.884 33.1981 160.991 33.3071C161.235 33.5021 161.544 33.5985 161.855 33.5771C162.423 33.5702 162.971 33.372 163.412 33.0145V30.8541C163.162 30.8841 162.885 30.9216 162.567 30.9741C162.261 31.0224 161.96 31.1063 161.673 31.2242C161.409 31.3275 161.169 31.4861 160.971 31.6892C160.875 31.7952 160.8 31.919 160.752 32.0537C160.703 32.1884 160.682 32.3314 160.689 32.4744Z" fill="white"/>
<path d="M168.054 24.9528C168.05 24.9206 168.052 24.8877 168.063 24.8567C168.073 24.8258 168.09 24.7977 168.113 24.7747C168.137 24.7517 168.165 24.7343 168.195 24.724C168.226 24.7137 168.259 24.7107 168.291 24.7153H170.947C170.98 24.7107 171.012 24.7137 171.043 24.724C171.074 24.7343 171.102 24.7517 171.125 24.7747C171.148 24.7977 171.166 24.8258 171.176 24.8567C171.186 24.8877 171.189 24.9206 171.185 24.9528V31.4817C171.185 32.6053 171.624 33.167 172.504 33.167C173.383 33.167 173.822 32.6053 173.821 31.4817V24.9528C173.816 24.9206 173.819 24.8877 173.829 24.8567C173.84 24.8258 173.857 24.7977 173.88 24.7747C173.903 24.7517 173.931 24.7343 173.962 24.724C173.993 24.7137 174.026 24.7107 174.058 24.7153H176.671C176.704 24.7107 176.736 24.7137 176.767 24.724C176.798 24.7343 176.826 24.7517 176.849 24.7747C176.872 24.7977 176.89 24.8258 176.9 24.8567C176.91 24.8877 176.913 24.9206 176.909 24.9528V31.4817C176.909 32.6053 177.348 33.167 178.225 33.167C179.103 33.167 179.543 32.6053 179.545 31.4817V24.9528C179.54 24.9206 179.543 24.8877 179.553 24.8567C179.564 24.8258 179.581 24.7977 179.604 24.7747C179.627 24.7517 179.655 24.7343 179.686 24.724C179.717 24.7137 179.75 24.7107 179.782 24.7153H182.438C182.471 24.7084 182.505 24.7097 182.538 24.719C182.57 24.7283 182.6 24.7454 182.625 24.7687C182.649 24.792 182.668 24.821 182.679 24.853C182.69 24.8851 182.693 24.9193 182.688 24.9528V32.2793C182.688 33.4463 182.328 34.3581 181.608 35.0149C180.889 35.6717 179.917 35.9993 178.693 35.9976C178.018 36.0127 177.348 35.884 176.726 35.62C176.189 35.3864 175.721 35.0177 175.367 34.5498C175.025 35.0201 174.562 35.3897 174.028 35.62C173.414 35.8826 172.752 36.0113 172.084 35.9976C170.86 35.9976 169.884 35.67 169.156 35.0149C168.428 34.3598 168.065 33.4479 168.067 32.2793L168.054 24.9528Z" fill="white"/>
</g>
<defs>
<filter id="filter0_d_374_186" x="33.5347" y="0" width="16.4973" height="16.5083" filterUnits="userSpaceOnUse" color-interpolation-filters="sRGB">
<feFlood flood-opacity="0" result="BackgroundImageFix"/>
<feColorMatrix in="SourceAlpha" type="matrix" values="0 0 0 0 0 0 0 0 0 0 0 0 0 0 0 0 0 0 127 0" result="hardAlpha"/>
<feOffset dy="1.46533"/>
<feGaussianBlur stdDeviation="0.732663"/>
<feComposite in2="hardAlpha" operator="out"/>
<feColorMatrix type="matrix" values="0 0 0 0 0 0 0 0 0 0 0 0 0 0 0 0 0 0 0.25 0"/>
<feBlend mode="normal" in2="BackgroundImageFix" result="effect1_dropShadow_374_186"/>
<feBlend mode="normal" in="SourceGraphic" in2="effect1_dropShadow_374_186" result="shape"/>
</filter>
<clipPath id="clip0_374_186">
<rect width="148" height="36" fill="white" transform="translate(35)"/>
</clipPath>
</defs>
</svg>
