<svg width="14" height="14" viewBox="0 0 14 14" fill="none" xmlns="http://www.w3.org/2000/svg">
<g clip-path="url(#clip0_198_513)">
<path fill-rule="evenodd" clip-rule="evenodd" d="M5.83333 1.90129C3.66169 1.90129 1.90123 3.66175 1.90123 5.83339C1.90123 8.00503 3.66169 9.76549 5.83333 9.76549C8.00496 9.76549 9.76542 8.00503 9.76542 5.83339C9.76542 3.66175 8.00496 1.90129 5.83333 1.90129ZM0.777771 5.83339C0.777771 3.04128 3.04122 0.777832 5.83333 0.777832C8.62543 0.777832 10.8889 3.04128 10.8889 5.83339C10.8889 8.62549 8.62543 10.8889 5.83333 10.8889C3.04122 10.8889 0.777771 8.62549 0.777771 5.83339Z" fill="#637381"/>
<path fill-rule="evenodd" clip-rule="evenodd" d="M9.52315 9.52309C9.77627 9.26997 10.1867 9.26997 10.4398 9.52309L13.2592 12.3425C13.5123 12.5957 13.5123 13.006 13.2592 13.2592C13.0061 13.5123 12.5957 13.5123 12.3426 13.2592L9.52315 10.4397C9.27003 10.1866 9.27003 9.77621 9.52315 9.52309Z" fill="#637381"/>
</g>
<defs>
<clipPath id="clip0_198_513">
<rect width="14" height="14" fill="white"/>
</clipPath>
</defs>
</svg>
